<svg xmlns="http://www.w3.org/2000/svg" viewBox="0 0 64 64"><title>Artboard 1 copy</title><g id="Layer_2" data-name="Layer 2"><path d="M50.35,29.15a10,10,0,0,0-18.44-5.54,10.89,10.89,0,0,0-5-1.22,11,11,0,0,0-10.84,9.44H14.13a10.43,10.43,0,1,0,0,20.86H34.67A10.43,10.43,0,0,0,45.09,42.26a10.29,10.29,0,0,0-.77-3.91A10,10,0,0,0,50.35,29.15ZM34.66,50H14.13a7.78,7.78,0,0,1,0-15.56h3.14a1.33,1.33,0,0,0,1.32-1.3,8.3,8.3,0,0,1,16.6.16,1.33,1.33,0,0,0,1.06,1.3A7.78,7.78,0,0,1,34.66,50ZM43,36a10.36,10.36,0,0,0-5.23-3.72,10.94,10.94,0,0,0-3.69-7.19A7.4,7.4,0,1,1,43,36Z"/><path d="M40.29,17.3A1.32,1.32,0,0,0,41.61,16V10.66a1.32,1.32,0,0,0-2.64,0V16A1.32,1.32,0,0,0,40.29,17.3Z"/><path d="M49.6,21.16a1.33,1.33,0,0,0,.94-.39L54.3,17a1.32,1.32,0,0,0-1.87-1.87L48.67,18.9a1.33,1.33,0,0,0,.93,2.26Z"/><path d="M50.54,37.52a1.33,1.33,0,0,0-1.87,0,1.32,1.32,0,0,0,0,1.87l3.76,3.76a1.3,1.3,0,0,0,.93.39,1.33,1.33,0,0,0,.94-2.26Z"/><path d="M30,20.77a1.33,1.33,0,1,0,1.88-1.87l-3.76-3.76A1.32,1.32,0,0,0,26.29,17Z"/><path d="M58.68,27.82H53.36a1.33,1.33,0,0,0,0,2.65h5.32a1.33,1.33,0,0,0,0-2.65Z"/></g></svg>