<svg width="64" height="64" viewBox="0 0 64 64" fill="none" xmlns="http://www.w3.org/2000/svg">
<rect width="64" height="64" fill="white"/>
<path d="M9.4999 32.8C9.6999 32.8 9.7999 32.8 9.9999 32.7C10.8999 32.4 11.7999 32.2 12.6999 32.2C13.0999 32.2 13.4999 32 13.7999 31.7C14.0999 31.4 14.1999 31 14.0999 30.5C13.9999 29.8 13.9999 29.2 13.9999 28.5C13.9999 20.5 20.3999 14 28.2999 14C34.7999 14 40.4999 18.5 42.1999 24.9C42.3999 25.7 43.1999 26.2 43.9999 26C45.2999 25.7 46.4999 25.6 47.7999 25.7C51.6999 26 55.2999 28.4 57.0999 31.9C57.4999 32.6 58.3999 32.9 59.0999 32.5C59.7999 32.1 60.0999 31.2 59.6999 30.5C57.3999 26 52.9999 23.1 47.9999 22.7C46.8999 22.6 45.6999 22.6 44.5999 22.8C42.1999 15.8 35.6999 11 28.1999 11C18.6999 11 10.8999 18.9 10.8999 28.5C10.8999 28.8 10.8999 29 10.8999 29.3C10.1999 29.4 9.4999 29.6 8.7999 29.8C7.9999 30.1 7.5999 30.9 7.8999 31.7C8.2999 32.4 8.8999 32.8 9.4999 32.8Z" fill="black"/>
<path d="M58 35H3.5C2.9 35 2.5 35.4 2.5 36C2.5 36.6 2.9 37 3.5 37H58C58.8 37 59.5 37.7 59.5 38.5C59.5 39.3 58.8 40 58 40H5.5C3.6 40 2 41.6 2 43.5C2 45.4 3.6 47 5.5 47H50C50.8 47 51.5 47.7 51.5 48.5C51.5 49.3 50.8 50 50 50H10.5C9.9 50 9.5 50.4 9.5 51C9.5 51.6 9.9 52 10.5 52H50C51.9 52 53.5 50.4 53.5 48.5C53.5 46.6 51.9 45 50 45H5.5C4.7 45 4 44.3 4 43.5C4 42.7 4.7 42 5.5 42H58C59.9 42 61.5 40.4 61.5 38.5C61.5 36.6 59.9 35 58 35Z" fill="black"/>
</svg>
