<svg width="64" height="64" viewBox="0 0 64 64" fill="none" xmlns="http://www.w3.org/2000/svg">
<g clip-path="url(#clip0)">
<rect width="64" height="64" fill="white"/>
<g clip-path="url(#clip1)">
<path d="M45.7094 17.3947C45.5307 17.3947 45.3467 17.4 45.16 17.4133C42.84 11.3813 36.9334 7.25867 30.408 7.25867C21.8667 7.25867 14.8854 14.0693 14.6134 22.5467C10.632 23.104 7.55469 26.5333 7.55469 30.6667C7.55469 35.16 11.1894 38.8213 15.688 38.864C15.7147 38.8667 15.744 38.8667 15.7707 38.8667L45.7547 38.864C51.648 38.84 56.4427 34.024 56.4427 28.128C56.4454 22.2107 51.6294 17.3947 45.7094 17.3947ZM45.7494 36.088L15.8294 36.0907C15.8054 36.088 15.7787 36.088 15.752 36.088C12.7627 36.088 10.3307 33.656 10.3307 30.6667C10.3307 27.688 12.7494 25.2613 15.7254 25.2453C15.72 25.2453 15.72 25.2453 15.7254 25.248C15.8 25.256 15.872 25.2667 15.9467 25.2693C16.3467 25.2987 16.736 25.1467 17.0187 24.8667C17.2987 24.5867 17.448 24.1947 17.4214 23.7973L17.408 23.5973C17.3947 23.4187 17.3814 23.24 17.3814 23.0613C17.3814 15.88 23.224 10.0373 30.4054 10.0373C36.1094 10.0373 41.2374 13.856 42.8774 19.32C43.0774 19.9893 43.744 20.408 44.4347 20.2907C44.912 20.2107 45.328 20.1733 45.7067 20.1733C50.0934 20.1733 53.664 23.744 53.664 28.1307C53.6667 32.4987 50.112 36.0693 45.7494 36.088Z" fill="black"/>
<path d="M25.7336 40.6213C25.0803 40.2187 24.2243 40.424 23.8243 41.0773L18.667 49.4773C18.267 50.1307 18.4696 50.9867 19.123 51.3867C19.3496 51.5253 19.6003 51.592 19.8483 51.592C20.315 51.592 20.771 51.3573 21.0323 50.9307L26.1896 42.5307C26.5896 41.8773 26.387 41.0213 25.7336 40.6213Z" fill="black"/>
<path d="M31.8027 40.6186C31.1493 40.2186 30.2933 40.424 29.8933 41.08L21.608 54.6293C21.208 55.2826 21.4133 56.1386 22.0693 56.5386C22.296 56.6773 22.5467 56.7413 22.792 56.7413C23.2587 56.7413 23.7173 56.504 23.9787 56.0773L32.264 42.528C32.664 41.8746 32.456 41.0186 31.8027 40.6186Z" fill="black"/>
<path d="M31.2747 51.3893C31.5013 51.5279 31.752 51.5946 32 51.5946C32.4667 51.5946 32.9227 51.3599 33.184 50.9333L38.3413 42.5333C38.7413 41.8799 38.5387 41.0239 37.8853 40.6239C37.232 40.2239 36.376 40.4266 35.976 41.0826L30.8187 49.4826C30.416 50.1333 30.6187 50.9866 31.2747 51.3893Z" fill="black"/>
</g>
</g>
<defs>
<clipPath id="clip0">
<rect width="64" height="64" fill="white"/>
</clipPath>
<clipPath id="clip1">
<rect width="64" height="80" fill="white"/>
</clipPath>
</defs>
</svg>
