<svg width="64" height="64" viewBox="0 0 64 64" fill="none" xmlns="http://www.w3.org/2000/svg">
<g clip-path="url(#clip0)">
<rect width="64" height="64" fill="white"/>
<path d="M40.2877 0C33.3992 0.00862181 27.7796 4.64418 25.2216 10.9969C23.0589 9.47597 20.7959 7.96358 18.1273 7.96123C12.4754 7.96811 7.54936 11.7158 5.77619 17.0958C2.32378 19.2656 0 23.1128 0 27.5454C0 34.3261 5.40243 39.8967 12.0914 39.8967H52.3792C59.0682 39.8967 64.4667 34.3261 64.4667 27.5454C64.4667 22.4466 61.1963 18.4018 56.8372 16.5328C56.4278 7.43884 49.3251 0.000864822 40.2877 0ZM40.2877 4.0318C47.3551 4.03248 53.0907 9.88402 53.0914 17.2178C53.0876 17.3163 53.0815 17.4187 53.0756 17.5171C53.0464 17.9766 53.1754 18.4324 53.4409 18.8084C53.7065 19.1845 54.0927 19.4582 54.5354 19.5842C57.9242 20.5542 60.4375 23.673 60.4375 27.5454C60.4375 32.2156 56.8509 35.8649 52.3792 35.8649H12.0914C7.61965 35.8649 4.02917 32.2156 4.02917 27.5454C4.02917 24.2979 5.81178 21.5958 8.38885 20.2141C8.63469 20.081 8.85015 19.8981 9.02153 19.6771C9.19291 19.4562 9.31647 19.2019 9.38434 18.9306C10.4525 14.8111 14.0353 11.998 18.1273 11.993C20.526 11.9951 22.8317 12.9728 24.537 14.7334C24.7859 14.9891 25.0981 15.1741 25.4418 15.2694C25.7856 15.3648 26.1484 15.3672 26.4933 15.2763C26.8383 15.1854 27.1529 15.0045 27.4051 14.7521C27.6573 14.4997 27.838 14.1848 27.9287 13.8396C29.4238 8.02924 34.4934 4.03905 40.2877 4.0318ZM14.0706 43.8577C13.806 43.8628 13.5451 43.9201 13.3026 44.0261C13.0602 44.1322 12.841 44.285 12.6575 44.4759C12.4741 44.6667 12.3301 44.8919 12.2336 45.1385C12.1372 45.385 12.0902 45.6482 12.0954 45.9129V47.921H10.0729C10.0087 47.9179 9.94434 47.9179 9.88011 47.921C9.35421 47.958 8.86368 48.1996 8.51353 48.594C8.16338 48.9884 7.98144 49.5042 8.00664 50.0312C8.03183 50.5581 8.26218 51.0543 8.64836 51.4134C9.03454 51.7726 9.54588 51.9662 10.0729 51.9528H12.0954V53.9608C12.0704 54.2396 12.1036 54.5206 12.1931 54.7859C12.2826 55.0511 12.4263 55.2948 12.6151 55.5014C12.8039 55.7081 13.0336 55.8731 13.2896 55.986C13.5456 56.0989 13.8223 56.1572 14.1021 56.1572C14.3819 56.1572 14.6586 56.0989 14.9146 55.986C15.1706 55.8731 15.4003 55.7081 15.5891 55.5014C15.7779 55.2948 15.9216 55.0511 16.011 54.7859C16.1005 54.5206 16.1338 54.2396 16.1088 53.9608V51.9528H18.1312C18.3996 51.9587 18.6664 51.911 18.916 51.8124C19.1656 51.7137 19.3931 51.5662 19.5849 51.3784C19.7768 51.1906 19.9293 50.9664 20.0333 50.7188C20.1374 50.4713 20.191 50.2054 20.191 49.9369C20.191 49.6683 20.1374 49.4024 20.0333 49.1549C19.9293 48.9074 19.7768 48.6831 19.5849 48.4953C19.3931 48.3075 19.1656 48.16 18.916 48.0614C18.6664 47.9627 18.3996 47.915 18.1312 47.921H16.1088V45.9129C16.1141 45.6429 16.0651 45.3746 15.9647 45.1239C15.8643 44.8732 15.7146 44.6452 15.5245 44.4535C15.3344 44.2618 15.1078 44.1103 14.858 44.0079C14.6082 43.9056 14.3405 43.8545 14.0706 43.8577ZM38.2535 43.8577C37.9872 43.8602 37.7242 43.9156 37.4794 44.0205C37.2347 44.1255 37.0132 44.2779 36.8277 44.469C36.6422 44.6601 36.4964 44.8861 36.3987 45.134C36.301 45.3818 36.2534 45.6466 36.2586 45.9129V47.921H34.2519C34.1824 47.9174 34.1128 47.9174 34.0433 47.921C33.5173 47.9598 33.0273 48.2032 32.6785 48.5991C32.3296 48.995 32.1495 49.5118 32.1768 50.0389C32.204 50.566 32.4365 51.0615 32.8243 51.4192C33.2122 51.7769 33.7246 51.9685 34.2519 51.9528H36.2586V53.9608C36.2586 54.496 36.471 55.0092 36.8492 55.3876C37.2274 55.7661 37.7403 55.9787 38.2751 55.9787C38.8099 55.9787 39.3229 55.7661 39.701 55.3876C40.0792 55.0092 40.2917 54.496 40.2917 53.9608V51.9528H42.3141C42.5824 51.9587 42.8492 51.911 43.0989 51.8124C43.3485 51.7137 43.5759 51.5662 43.7678 51.3784C43.9597 51.1906 44.1121 50.9664 44.2162 50.7188C44.3203 50.4713 44.3739 50.2054 44.3739 49.9369C44.3739 49.6683 44.3203 49.4024 44.2162 49.1549C44.1121 48.9074 43.9597 48.6831 43.7678 48.4953C43.5759 48.3075 43.3485 48.16 43.0989 48.0614C42.8492 47.9627 42.5824 47.915 42.3141 47.921H40.2917V45.9129C40.2969 45.6429 40.2479 45.3746 40.1476 45.1239C40.0472 44.8732 39.8975 44.6452 39.7074 44.4535C39.5173 44.2618 39.2906 44.1103 39.0409 44.0079C38.7911 43.9056 38.5233 43.8545 38.2535 43.8577V43.8577ZM50.3449 49.9014C50.2752 49.9018 50.2056 49.9057 50.1364 49.9132C49.6385 49.97 49.1796 50.2104 48.8493 50.5875C48.519 50.9646 48.341 51.4514 48.35 51.9528V53.9608H46.3275C45.7927 53.9608 45.2798 54.1734 44.9016 54.5518C44.5235 54.9302 44.311 55.4435 44.311 55.9787C44.311 56.5138 44.5235 57.0271 44.9016 57.4055C45.2798 57.7839 45.7927 57.9965 46.3275 57.9965H48.35V60.0203C48.35 60.5555 48.5625 61.0687 48.9406 61.4472C49.3188 61.8256 49.8317 62.0382 50.3665 62.0382C50.9014 62.0382 51.4143 61.8256 51.7925 61.4472C52.1706 61.0687 52.3831 60.5555 52.3831 60.0203V57.9965H54.3898C54.9246 57.9965 55.4376 57.7839 55.8157 57.4055C56.1939 57.0271 56.4064 56.5138 56.4064 55.9787C56.4064 55.4435 56.1939 54.9302 55.8157 54.5518C55.4376 54.1734 54.9246 53.9608 54.3898 53.9608H52.3831V51.9528C52.3878 51.6831 52.3384 51.4152 52.2378 51.1649C52.1372 50.9147 51.9875 50.6872 51.7974 50.4959C51.6073 50.3046 51.3809 50.1535 51.1314 50.0513C50.8819 49.9492 50.6144 49.8983 50.3449 49.9014ZM26.162 51.9252C25.6284 51.9315 25.1191 52.1494 24.7459 52.531C24.3726 52.9126 24.1659 53.4268 24.1711 53.9608V55.9885H22.1644C22.0949 55.9849 22.0253 55.9849 21.9558 55.9885C21.4298 56.0274 20.9398 56.2708 20.591 56.6667C20.2421 57.0625 20.062 57.5794 20.0892 58.1065C20.1165 58.6336 20.349 59.1291 20.7368 59.4868C21.1247 59.8445 21.6371 60.036 22.1644 60.0203H24.1711V62.0283C24.1827 62.5552 24.4001 63.0566 24.7767 63.4251C25.1532 63.7937 25.659 64 26.1856 64C26.7123 64 27.2181 63.7937 27.5946 63.4251C27.9712 63.0566 28.1885 62.5552 28.2002 62.0283V60.0203H30.2227C30.491 60.0263 30.7578 59.9785 31.0074 59.8799C31.2571 59.7813 31.4845 59.6337 31.6764 59.4459C31.8682 59.2582 32.0207 59.0339 32.1248 58.7864C32.2288 58.5388 32.2824 58.273 32.2824 58.0044C32.2824 57.7358 32.2288 57.47 32.1248 57.2225C32.0207 56.9749 31.8682 56.7507 31.6764 56.5629C31.4845 56.3751 31.2571 56.2276 31.0074 56.1289C30.7578 56.0303 30.491 55.9826 30.2227 55.9885H28.2002V53.9608C28.2028 53.6924 28.1519 53.4262 28.0503 53.1778C27.9488 52.9294 27.7987 52.7038 27.6088 52.5142C27.419 52.3246 27.1932 52.1748 26.9448 52.0737C26.6964 51.9726 26.4302 51.9221 26.162 51.9252V51.9252Z" fill="black"/>
</g>
<defs>
<clipPath id="clip0">
<rect width="64" height="64" fill="white"/>
</clipPath>
</defs>
</svg>
