<svg xmlns="http://www.w3.org/2000/svg" viewBox="0 0 64 64"><title>Artboard 1 copy 2</title><g id="Layer_3" data-name="Layer 3"><path d="M19,57.38a1,1,0,0,0,.64.22,1.05,1.05,0,0,0,.74-.31L38.42,39.8A1.07,1.07,0,0,0,37.68,38H35.26l7-9.52a1.07,1.07,0,0,0-.86-1.7h-12a1.07,1.07,0,0,0-1,.6L21,42.51a1,1,0,0,0,.05,1,1.07,1.07,0,0,0,.91.5h3L18.64,56A1.07,1.07,0,0,0,19,57.38Zm8.73-13.9a1.07,1.07,0,0,0-.95-1.57H23.65l6.4-13H39.3l-7,9.52a1.07,1.07,0,0,0,.86,1.7H35l-11.37,11ZM49.13,18.72a11.37,11.37,0,0,0-12.9-7.29,11.35,11.35,0,0,0-20.92,6.12c0,.4,0,.8.06,1.21a9.54,9.54,0,0,0,1,19h3.21a1.08,1.08,0,0,0,0-2.15H16.38a7.39,7.39,0,1,1,.06-14.78h.16a1.06,1.06,0,0,0,.86-.39,1.09,1.09,0,0,0,.22-.92,9.39,9.39,0,0,1-.23-2,9.21,9.21,0,0,1,17.32-4.39,1,1,0,0,0,1.22.52,9.23,9.23,0,0,1,11.33,6.41,1.1,1.1,0,0,0,1.08.78h.34a7.4,7.4,0,0,1,0,14.79H42.9a1.08,1.08,0,0,0,0,2.15h5.84a9.54,9.54,0,0,0,.39-19.07Z"/></g></svg>